<svg width="24" height="30" viewBox="0 0 24 30" fill="none" xmlns="http://www.w3.org/2000/svg">
<path d="M0.737146 0V9.3501H2.34818L2.34818 1.61103H21.7095V18.7084C21.7095 19.9798 21.4591 21.2387 20.9726 22.4132C20.4861 23.5878 19.773 24.655 18.874 25.554C17.975 26.4529 16.9078 27.166 15.7332 27.6526C14.5587 28.139 13.2998 28.3895 12.0285 28.3895C10.7571 28.3895 9.49821 28.139 8.32366 27.6526C7.14911 27.166 6.08187 26.4529 5.1829 25.554C4.28394 24.655 3.57084 23.5878 3.08431 22.4132C2.59779 21.2387 2.34738 19.9798 2.34738 18.7084V17.3689H8.41857V18.7084C8.41857 19.6654 8.79874 20.5832 9.47542 21.2599C10.1521 21.9366 11.0699 22.3167 12.0269 22.3167C12.9838 22.3167 13.9016 21.9366 14.5783 21.2599C15.255 20.5832 15.6351 19.6654 15.6351 18.7084V7.68355H8.41937V9.3501H13.971V18.7084C13.971 19.2237 13.7663 19.7178 13.402 20.0822C13.0376 20.4465 12.5435 20.6512 12.0282 20.6512C11.5129 20.6512 11.0188 20.4465 10.6544 20.0822C10.2901 19.7178 10.0854 19.2237 10.0854 18.7084V15.701H2.34711H0.736084V18.7076C0.736084 21.7025 1.9258 24.5747 4.04349 26.6924C6.16121 28.8103 9.03342 30 12.0283 30C15.0232 30 17.8954 28.8103 20.0131 26.6924C22.1308 24.5747 23.3206 21.7025 23.3206 18.7076V0H0.737146Z" fill="#231D4F"/>
<path d="M12.0306 23.7036C10.7056 23.7026 9.43513 23.1759 8.49802 22.2392C7.56088 21.3024 7.03366 20.0322 7.03204 18.7072H5.36842C5.36842 20.4738 6.07021 22.1681 7.31943 23.4173C8.56862 24.6665 10.2629 25.3683 12.0296 25.3683C13.7962 25.3683 15.4905 24.6665 16.7397 23.4173C17.9889 22.1681 18.6907 20.4738 18.6907 18.7072V4.62891H3.42383V9.34805H5.08746V6.29333H17.0247V18.7061C17.0238 20.0307 16.4975 21.3008 15.5612 22.2377C14.625 23.1747 13.3552 23.7019 12.0306 23.7036Z" fill="#BB6BD9"/>
</svg>
